{"nbformat":4,"nbformat_minor":0,"metadata":{"colab":{"provenance":[],"gpuType":"T4","authorship_tag":"ABX9TyPp1ufNyL749ZoCiR5kIL7K"},"kernelspec":{"name":"python3","display_name":"Python 3"},"language_info":{"name":"python"},"accelerator":"GPU"},"cells":[{"cell_type":"code","execution_count":1,"metadata":{"colab":{"base_uri":"https://localhost:8080/"},"id":"Z7Z-THj_MlgX","executionInfo":{"status":"ok","timestamp":1759497199105,"user_tz":-480,"elapsed":50035,"user":{"displayName":"Dedeepya Narne","userId":"05588582597021979303"}},"outputId":"d01ed897-05c5-4784-99d5-d71de04ebe47"},"outputs":[{"output_type":"stream","name":"stdout","text":["Mounted at /content/drive\n"]}],"source":["from google.colab import drive\n","drive.mount('/content/drive')"]},{"cell_type":"code","source":["file_path = \"/content/drive/MyDrive/auido.wav\""],"metadata":{"id":"aZ7PlvBQM9iR","executionInfo":{"status":"ok","timestamp":1759497217989,"user_tz":-480,"elapsed":48,"user":{"displayName":"Dedeepya Narne","userId":"05588582597021979303"}}},"execution_count":2,"outputs":[]},{"cell_type":"code","source":["import os\n","print(os.path.exists(file_path))"],"metadata":{"colab":{"base_uri":"https://localhost:8080/"},"id":"cmDnjCLJNOYi","executionInfo":{"status":"ok","timestamp":1759497232491,"user_tz":-480,"elapsed":137,"user":{"displayName":"Dedeepya Narne","userId":"05588582597021979303"}},"outputId":"e757f6cb-5d78-4e1e-a9ee-6cd2b9f403ce"},"execution_count":3,"outputs":[{"output_type":"stream","name":"stdout","text":["True\n"]}]},{"cell_type":"code","source":["import wave\n","\n","wf = wave.open(file_path, \"rb\")\n","print(\"Channels:\", wf.getnchannels())\n","print(\"Sample rate:\", wf.getframerate())\n","print(\"Duration (seconds):\", wf.getnframes() / wf.getframerate())"],"metadata":{"colab":{"base_uri":"https://localhost:8080/"},"id":"-h0pvnehNR5k","executionInfo":{"status":"ok","timestamp":1759497400115,"user_tz":-480,"elapsed":277,"user":{"displayName":"Dedeepya Narne","userId":"05588582597021979303"}},"outputId":"ed275db2-4cb9-43ff-ef8c-a1f8c3b3bdd0"},"execution_count":4,"outputs":[{"output_type":"stream","name":"stdout","text":["Channels: 2\n","Sample rate: 48000\n","Duration (seconds): 3.584\n"]}]},{"cell_type":"code","source":["!apt-get install ffmpeg  # install ffmpeg if not installed\n","!ffmpeg -i \"/content/drive/MyDrive/auido.wav\" -ac 1 -ar 16000 \"/content/drive/MyDrive/auido_mono.wav\""],"metadata":{"colab":{"base_uri":"https://localhost:8080/"},"id":"VDy5X5uQN6xd","executionInfo":{"status":"ok","timestamp":1759497425182,"user_tz":-480,"elapsed":4167,"user":{"displayName":"Dedeepya Narne","userId":"05588582597021979303"}},"outputId":"4acb9e8b-47aa-416a-8122-7b3acaa7a750"},"execution_count":5,"outputs":[{"output_type":"stream","name":"stdout","text":["Reading package lists... Done\n","Building dependency tree... Done\n","Reading state information... Done\n","ffmpeg is already the newest version (7:4.4.2-0ubuntu0.22.04.1).\n","0 upgraded, 0 newly installed, 0 to remove and 38 not upgraded.\n","ffmpeg version 4.4.2-0ubuntu0.22.04.1 Copyright (c) 2000-2021 the FFmpeg developers\n","  built with gcc 11 (Ubuntu 11.2.0-19ubuntu1)\n","  configuration: --prefix=/usr --extra-version=0ubuntu0.22.04.1 --toolchain=hardened --libdir=/usr/lib/x86_64-linux-gnu --incdir=/usr/include/x86_64-linux-gnu --arch=amd64 --enable-gpl --disable-stripping --enable-gnutls --enable-ladspa --enable-libaom --enable-libass --enable-libbluray --enable-libbs2b --enable-libcaca --enable-libcdio --enable-libcodec2 --enable-libdav1d --enable-libflite --enable-libfontconfig --enable-libfreetype --enable-libfribidi --enable-libgme --enable-libgsm --enable-libjack --enable-libmp3lame --enable-libmysofa --enable-libopenjpeg --enable-libopenmpt --enable-libopus --enable-libpulse --enable-librabbitmq --enable-librubberband --enable-libshine --enable-libsnappy --enable-libsoxr --enable-libspeex --enable-libsrt --enable-libssh --enable-libtheora --enable-libtwolame --enable-libvidstab --enable-libvorbis --enable-libvpx --enable-libwebp --enable-libx265 --enable-libxml2 --enable-libxvid --enable-libzimg --enable-libzmq --enable-libzvbi --enable-lv2 --enable-omx --enable-openal --enable-opencl --enable-opengl --enable-sdl2 --enable-pocketsphinx --enable-librsvg --enable-libmfx --enable-libdc1394 --enable-libdrm --enable-libiec61883 --enable-chromaprint --enable-frei0r --enable-libx264 --enable-shared\n","  libavutil      56. 70.100 / 56. 70.100\n","  libavcodec     58.134.100 / 58.134.100\n","  libavformat    58. 76.100 / 58. 76.100\n","  libavdevice    58. 13.100 / 58. 13.100\n","  libavfilter     7.110.100 /  7.110.100\n","  libswscale      5.  9.100 /  5.  9.100\n","  libswresample   3.  9.100 /  3.  9.100\n","  libpostproc    55.  9.100 / 55.  9.100\n","\u001b[0;33mGuessed Channel Layout for Input Stream #0.0 : stereo\n","\u001b[0mInput #0, wav, from '/content/drive/MyDrive/auido.wav':\n","  Metadata:\n","    encoder         : Lavf60.16.100\n","  Duration: 00:00:03.58, bitrate: 1536 kb/s\n","  Stream #0:0: Audio: pcm_s16le ([1][0][0][0] / 0x0001), 48000 Hz, stereo, s16, 1536 kb/s\n","Stream mapping:\n","  Stream #0:0 -> #0:0 (pcm_s16le (native) -> pcm_s16le (native))\n","Press [q] to stop, [?] for help\n","Output #0, wav, to '/content/drive/MyDrive/auido_mono.wav':\n","  Metadata:\n","    ISFT            : Lavf58.76.100\n","  Stream #0:0: Audio: pcm_s16le ([1][0][0][0] / 0x0001), 16000 Hz, mono, s16, 256 kb/s\n","    Metadata:\n","      encoder         : Lavc58.134.100 pcm_s16le\n","size=     112kB time=00:00:03.58 bitrate= 256.2kbits/s speed= 172x    \n","video:0kB audio:112kB subtitle:0kB other streams:0kB global headers:0kB muxing overhead: 0.068011%\n"]}]},{"cell_type":"code","source":["file_path = \"/content/drive/MyDrive/auido_mono.wav\""],"metadata":{"id":"6C-6FLmfOcph","executionInfo":{"status":"ok","timestamp":1759497549411,"user_tz":-480,"elapsed":126,"user":{"displayName":"Dedeepya Narne","userId":"05588582597021979303"}}},"execution_count":6,"outputs":[]},{"cell_type":"code","source":["wf = wave.open(file_path, \"rb\")\n","print(\"\\nCleaned File Properties:\")\n","print(\" - Channels:\", wf.getnchannels())\n","print(\" - Sample rate:\", wf.getframerate())\n","print(\" - Duration (seconds):\", round(wf.getnframes() / wf.getframerate(), 2))\n","wf.close()"],"metadata":{"colab":{"base_uri":"https://localhost:8080/"},"id":"DBXf-ORnOfRa","executionInfo":{"status":"ok","timestamp":1759497586102,"user_tz":-480,"elapsed":8,"user":{"displayName":"Dedeepya Narne","userId":"05588582597021979303"}},"outputId":"71c1821b-bb97-4274-c8a9-dec61aa0005e"},"execution_count":7,"outputs":[{"output_type":"stream","name":"stdout","text":["\n","Cleaned File Properties:\n"," - Channels: 1\n"," - Sample rate: 16000\n"," - Duration (seconds): 3.58\n"]}]},{"cell_type":"code","source":[],"metadata":{"id":"3z8u-gjtOoQ2"},"execution_count":null,"outputs":[]}]}